<svg width="20" height="20" viewBox="0 0 20 20" fill="none" xmlns="http://www.w3.org/2000/svg">
<g clip-path="url(#clip0_535_429)">
<path fill-rule="evenodd" clip-rule="evenodd" d="M13.3131 5.93372C12.8851 5.95138 12.3783 5.96217 11.8261 5.95436C10.2256 5.93188 8.18278 5.753 6.57388 5.09049L6.9585 4.15643C8.3854 4.74396 10.2711 4.92221 11.8402 4.94438C12.6172 4.95531 13.3017 4.92795 13.7915 4.89784C14.0363 4.88276 14.2319 4.86709 14.3657 4.85524C14.4325 4.84934 14.4838 4.84437 14.518 4.8409L14.5562 4.83698L14.5653 4.83604L14.5673 4.83578L15.195 4.76605L15.1253 5.39346L15.125 5.39578L15.1241 5.40484L15.1202 5.44306C15.1167 5.4773 15.1117 5.52862 15.1059 5.59544C15.094 5.72915 15.0783 5.92477 15.0632 6.16954C15.0331 6.65943 15.0058 7.34392 15.0167 8.12085C15.0389 9.69001 15.2171 11.5757 15.8046 13.0026L14.8706 13.3872C14.2081 11.7783 14.0292 9.73548 14.0067 8.13501C13.9989 7.5828 14.0098 7.07605 14.0274 6.64808L4.98054 15.6949L4.26626 14.9806L13.3131 5.93372Z" fill="white" stroke="white"/>
</g>
<defs>
<clipPath id="clip0_535_429">
<rect width="13" height="15" fill="white" transform="translate(9.28568 20) scale(1.01015) rotate(-135)"/>
</clipPath>
</defs>
</svg>
